PathFileType	4	(X/Y/Z)	/Users/niels/Desktop/University/Third Semester/Perception and Action/Exam/Gymnastics Motion Tracking/Code for Gym Tracking/Analyzed Data/Webcam_Backflip/id19_5_trajectory_Sports2D/id19_5_trajectory_Sports2D_px_person00.trc
DataRate	CameraRate	NumFrames	NumMarkers	Units	OrigDataRate	OrigDataStartFrame	OrigNumFrames
29.714285714285715	29.714285714285715	8	22	m	29.714285714285715	91	105
Frame#	Time	Hip			RHip			RKnee			RAnkle			RBigToe			RSmallToe			RHeel			LHip			LKnee			LAnkle			LBigToe			LSmallToe			LHeel			Neck			Head			Nose			RShoulder			RElbow			RWrist			LShoulder			LElbow			LWrist		
		X1	Y1	Z1	X2	Y2	Z2	X3	Y3	Z3	X4	Y4	Z4	X5	Y5	Z5	X6	Y6	Z6	X7	Y7	Z7	X8	Y8	Z8	X9	Y9	Z9	X10	Y10	Z10	X11	Y11	Z11	X12	Y12	Z12	X13	Y13	Z13	X14	Y14	Z14	X15	Y15	Z15	X16	Y16	Z16	X17	Y17	Z17	X18	Y18	Z18	X19	Y19	Z19	X20	Y20	Z20	X21	Y21	Z21	X22	Y22	Z22
91	3.0625	1.3877595283193747	-0.6834456961287835	0.0	1.3486643199759778	-0.6855393021955981	0.0	1.3247243657010972	-0.8420011704136386	0.0	1.2968461266841453	-1.006735622484331	0.0	1.3497453664264416	-1.0359322861283198	0.0	1.3236517487173132	-1.0418622932500885	0.0	1.2841518930598308	-1.0256928469880975	0.0	1.4240140920605036	-0.681168076757996	0.0	1.5048971723893851	-0.8263731751557887	0.0	1.4830000061351332	-0.9823981641710885	0.0	1.5551052076234537	-1.0227510468868277	0.0	1.5477361855001786	-1.0146784689317927	0.0	1.4693749152558315	-1.005527001477936	0.0	1.3788732638592232	-0.4202157183570802	0.0	1.3878712807188642	-0.3066337432098061	0.0	1.3999978310219447	-0.36684867820564737	0.0	1.3266215594854027	-0.459681332528017	0.0	1.3122643869995014	-0.5724532778386852	0.0	1.4224562572455874	-0.6242346345386507	0.0	1.416952859940058	-0.456268646703408	0.0	1.383339742890407	-0.5623280301233936	0.0	1.4145289125638791	-0.6448390497525006	0.0
92	3.096153846153846	1.403447468669543	-0.6780503931140044	0.0	1.3624035196717788	-0.680607336775005	0.0	1.3319972579680657	-0.8388980029405	0.0	1.2990896355972195	-1.0010473487089084	0.0	1.3516477161995264	-1.0350989617625481	0.0	1.3250321289400093	-1.0396635023590557	0.0	1.2854253177498987	-1.0206636480763633	0.0	1.4414196052036254	-0.6757944890928523	0.0	1.5229550734566377	-0.8240937013731002	0.0	1.5224385343800646	-0.9937645437651005	0.0	1.5987022027965587	-1.0275993964102157	0.0	1.5914985826416697	-1.0209921273598546	0.0	1.5105239386184643	-1.0188798754586665	0.0	1.3965767855496476	-0.4136400495683916	0.0	1.4063748397071625	-0.2998636250288242	0.0	1.4167122677369106	-0.36055729543917797	0.0	1.3410684156471024	-0.4522836713546514	0.0	1.3235148484695816	-0.5645225345921319	0.0	1.4351679301002422	-0.6124644509290753	0.0	1.4372492537856494	-0.45016154676490117	0.0	1.4001926273178955	-0.5552692662210963	0.0	1.428835372833482	-0.635997078544225	0.0
93	3.129807692307692	1.419581556023317	-0.674419486940014	0.0	1.37690524383997	-0.6774279812117432	0.0	1.342533516475993	-0.8374822284596656	0.0	1.3022764577475052	-0.9958080466486557	0.0	1.3530097209607004	-1.034832435607947	0.0	1.32638309307423	-1.0379118237921166	0.0	1.287481674526755	-1.0152689609717747	0.0	1.4592984117382637	-0.672220497733231	0.0	1.5394300356357238	-0.8243989764060612	0.0	1.5519294422105618	-1.0031113202792732	0.0	1.6296251148787915	-1.032184552755003	0.0	1.6224745446163167	-1.0265972304412507	0.0	1.5409149324769829	-1.0290392679288627	0.0	1.4147338484261145	-0.4083822179234211	0.0	1.42543391173575	-0.29489129039881873	0.0	1.433773003981737	-0.3558365537155811	0.0	1.3556761891595235	-0.4465657401364409	0.0	1.3337724687598638	-0.5583140273247938	0.0	1.445534632673625	-0.6046819995966951	0.0	1.4582633840347048	-0.44616912972758355	0.0	1.4182594778114528	-0.5504264042485608	0.0	1.4451684208254967	-0.6296038228173789	0.0
94	3.1634615384615383	1.4360673235846908	-0.6725770343593845	0.0	1.3922299922025079	-0.6758068338741932	0.0	1.356740176235044	-0.8376202763704625	0.0	1.3065717774223793	-0.9902129047176762	0.0	1.3537941768000372	-1.0344756084207292	0.0	1.3275975627508037	-1.0359463007071814	0.0	1.2907805650658146	-1.0085472044285353	0.0	1.477459164523744	-0.6703789143838256	0.0	1.5541579078857277	-0.8264651019307935	0.0	1.5708885761264635	-1.0104518045062345	0.0	1.6483163168467225	-1.0364729063708618	0.0	1.6412035425120468	-1.0313768607296683	0.0	1.5600851907064406	-1.036204101442296	0.0	1.432907214560968	-0.4044996320568205	0.0	1.4446809206589992	-0.2914642986381931	0.0	1.4509813153521582	-0.3525244047863769	0.0	1.370459399538734	-0.442481883676185	0.0	1.3437672830120866	-0.5540165112815412	0.0	1.4539304666767738	-0.6014326325632123	0.0	1.479321797150733	-0.44408665449848905	0.0	1.4372831696565667	-0.5477985473364076	0.0	1.4628332597643188	-0.6268269558224955	0.0
95	3.1971153846153846	1.4527452774910186	-0.6721338864247409	0.0	1.4083774955366295	-0.6751947853056903	0.0	1.3746943664529327	-0.8389789123560385	0.0	1.3122866066613876	-0.9832989713295119	0.0	1.3543142536265684	-1.0332463724002678	0.0	1.3288038094732322	-1.0328985526115684	0.0	1.295858012026852	-0.9994273251978422	0.0	1.4955998648743756	-0.6698413357233901	0.0	1.5666763280341134	-0.8293584058082903	0.0	1.5809054257593524	-1.0159062939664967	0.0	1.6570206742008122	-1.0401010550025316	0.0	1.6501427719822912	-1.0350021695964908	0.0	1.569991227847789	-1.0406902949636916	0.0	1.450641327100499	-0.4018907731769675	0.0	1.4635880131328014	-0.28897355998842644	0.0	1.4680061388175627	-0.3502044529760075	0.0	1.3854173038436628	-0.4396028885300823	0.0	1.3541856527502438	-0.5514113611396925	0.0	1.4601948201350297	-0.6025497228045873	0.0	1.4997418812395304	-0.44344822028042136	0.0	1.457454579926145	-0.5472312196853504	0.0	1.4816215011910499	-0.628500888624482	0.0
96	3.230769230769231	1.469331384476904	-0.6724086471741141	0.0	1.4251481752479869	-0.6749476377334124	0.0	1.3960758929301829	-0.8410255984913418	0.0	1.3199526146015517	-0.9743090089114211	0.0	1.355329213572271	-1.030490493261435	0.0	1.3305429822214272	-1.0280396092021837	0.0	1.3033134476169974	-0.9871952600493772	0.0	1.5132808729336003	-0.6700314791407556	0.0	1.5765852845715005	-0.8322670532157794	0.0	1.5847966566402756	-1.0195186368004594	0.0	1.6587639927839182	-1.0427073488552179	0.0	1.6525517901747384	-1.0371879765818242	0.0	1.573783108705062	-1.0428110297521662	0.0	1.46760812360839	-0.400251988622574	0.0	1.4816386305544273	-0.28670899450295495	0.0	1.4843916478545998	-0.3483748985161397	0.0	1.4004330606527218	-0.43726759465562637	0.0	1.3654500586393696	-0.5499042518331542	0.0	1.4637645316989014	-0.6072296775735551	0.0	1.5190510878708336	-0.44368850928723347	0.0	1.4792306733392768	-0.5484383598665142	0.0	1.5019686984000706	-0.6346556163651893	0.0
97	3.2644230769230766	1.4854215883941797	-0.6725794266770397	0.0	1.4420818050689503	-0.6745244281064711	0.0	1.4201870548487736	-0.8430909433681691	0.0	1.3302959328529957	-0.9631204631661846	0.0	1.3581478348157192	-1.0259184614694665	0.0	1.333986124937358	-1.0211499697938762	0.0	1.3137551709419393	-0.9720165194763235	0.0	1.5299866071044121	-0.6704019610518721	0.0	1.5838427624120335	-0.8346148659284323	0.0	1.5853668008994601	-1.0213284025062654	0.0	1.6564718614898735	-1.0442246132708124	0.0	1.65142081577633	-1.037975374487095	0.0	1.5743995281744312	-1.0429801106283547	0.0	1.4836428268101107	-0.39904173991453346	0.0	1.498499292680188	-0.28410877927984884	0.0	1.4997166874302064	-0.3465192364481272	0.0	1.4152108051686565	-0.4348116344672191	0.0	1.3774943001099467	-0.5486596235084035	0.0	1.4640245495926898	-0.6141601237653742	0.0	1.5370580413727262	-0.4442308269099687	0.0	1.5031351321798208	-0.5508991359392971	0.0	1.5251184946396479	-0.6441112422286513	0.0
98	3.298076923076923	1.5005769338840058	-0.6719049770498611	0.0	1.458514228577492	-0.6735443149169311	0.0	1.4460673558874673	-0.8444097710220474	0.0	1.344136212514276	-0.9506211816721903	0.0	1.3646717209784016	-1.0198728102256442	0.0	1.3409374726079097	-1.0128369553088732	0.0	1.3277866942264571	-0.9553149005187779	0.0	1.5452457638344024	-0.67050309074175	0.0	1.5888541666007387	-0.8361460237226133	0.0	1.5846507488185277	-1.0215419631975482	0.0	1.6524750883498578	-1.0448524723507946	0.0	1.6489142762208164	-1.0377389749697097	0.0	1.573805740722698	-1.0417847306542103	0.0	1.4987386483541159	-0.39763884645322223	0.0	1.5140952666759775	-0.2809208170681414	0.0	1.5138116048399348	-0.3442150028370819	0.0	1.4293697793568396	-0.4317997257591378	0.0	1.389714473279171	-0.5468652306253734	0.0	1.460760085277169	-0.6217774097849491	0.0	1.5538129293640681	-0.4445943827136195	0.0	1.52957001377934	-0.5537580946757529	0.0	1.5529534007840615	-0.6544560304687594	0.0
